<svg width="40" height="40" viewBox="0 0 40 40" fill="none" xmlns="http://www.w3.org/2000/svg">
<path d="M3.79181 39.5193C2.81116 39.5763 1.8467 39.2503 1.10178 38.61C-0.367259 37.1322 -0.367259 34.7455 1.10178 33.2677L33.2689 1.10051C34.7968 -0.329226 37.1944 -0.249748 38.6241 1.27818C39.917 2.65988 39.9923 4.78358 38.8005 6.25337L6.44391 38.61C5.70867 39.2411 4.7596 39.5665 3.79181 39.5193Z" fill="black"/>
<path d="M35.9209 39.5194C34.927 39.5152 33.9744 39.1206 33.2687 38.4207L1.10147 6.25333C-0.259515 4.66401 -0.0744813 2.27218 1.51483 0.911067C2.93334 -0.303689 5.02535 -0.303689 6.44373 0.911067L38.8003 33.0783C40.3279 34.5084 40.4069 36.9061 38.9768 38.4336C38.9199 38.4944 38.8611 38.5532 38.8003 38.6101C38.4084 38.9509 37.9505 39.2075 37.4551 39.364C36.9598 39.5204 36.4376 39.5733 35.9209 39.5194Z" fill="black"/>
</svg>
