<svg width="578" height="384" viewBox="0 0 578 384" fill="none" xmlns="http://www.w3.org/2000/svg">
<g clip-path="url(#clip0_1020_2125)">
<path d="M571.119 0H6.88095C3.08071 0 0 3.07921 0 6.87761V377.122C0 380.921 3.08071 384 6.88095 384H571.119C574.919 384 578 380.921 578 377.122V6.87761C578 3.07921 574.919 0 571.119 0Z" fill="#F7F7F7"/>
<g opacity="0.57">
<g filter="url(#filter0_d_1020_2125)">
<path d="M537.861 234.985H40.1388C36.3385 234.985 33.2578 238.064 33.2578 241.863V335.857C33.2578 339.655 36.3385 342.734 40.1388 342.734H537.861C541.661 342.734 544.742 339.655 544.742 335.857V241.863C544.742 238.064 541.661 234.985 537.861 234.985Z" fill="white"/>
</g>
<path d="M532.126 310.639H474.785C472.885 310.639 471.345 312.178 471.345 314.078V330.125C471.345 332.025 472.885 333.564 474.785 333.564H532.126C534.027 333.564 535.567 332.025 535.567 330.125V314.078C535.567 312.178 534.027 310.639 532.126 310.639Z" fill="#F3F4F6"/>
<path d="M461.023 310.639H444.968C443.068 310.639 441.527 312.178 441.527 314.078V330.125C441.527 332.025 443.068 333.564 444.968 333.564H461.023C462.923 333.564 464.464 332.025 464.464 330.125V314.078C464.464 312.178 462.923 310.639 461.023 310.639Z" fill="#F3F4F6"/>
<path d="M431.206 310.639H415.15C413.25 310.639 411.71 312.178 411.71 314.078V330.125C411.71 332.025 413.25 333.564 415.15 333.564H431.206C433.106 333.564 434.646 332.025 434.646 330.125V314.078C434.646 312.178 433.106 310.639 431.206 310.639Z" fill="#F3F4F6"/>
<path d="M426.619 316.37H419.738C418.471 316.37 417.444 317.397 417.444 318.663V325.54C417.444 326.806 418.471 327.833 419.738 327.833H426.619C427.886 327.833 428.913 326.806 428.913 325.54V318.663C428.913 317.397 427.886 316.37 426.619 316.37Z" fill="#C6C6C6"/>
<path d="M456.436 316.37H449.555C448.289 316.37 447.262 317.397 447.262 318.663V325.54C447.262 326.806 448.289 327.833 449.555 327.833H456.436C457.703 327.833 458.73 326.806 458.73 325.54V318.663C458.73 317.397 457.703 316.37 456.436 316.37Z" fill="#C6C6C6"/>
<path d="M486.254 316.37H479.373C478.106 316.37 477.079 317.397 477.079 318.663V325.54C477.079 326.806 478.106 327.833 479.373 327.833H486.254C487.52 327.833 488.547 326.806 488.547 325.54V318.663C488.547 317.397 487.52 316.37 486.254 316.37Z" fill="#C6C6C6"/>
<path d="M529.833 318.663H497.722C497.089 318.663 496.575 319.176 496.575 319.809V324.394C496.575 325.027 497.089 325.54 497.722 325.54H529.833C530.467 325.54 530.98 325.027 530.98 324.394V319.809C530.98 319.176 530.467 318.663 529.833 318.663Z" fill="#B3B3B3"/>
<path d="M243.127 251.033H227.071C225.171 251.033 223.631 252.572 223.631 254.472V270.519C223.631 272.419 225.171 273.958 227.071 273.958H243.127C245.027 273.958 246.567 272.419 246.567 270.519V254.472C246.567 252.572 245.027 251.033 243.127 251.033Z" fill="#F3F4F6"/>
<path d="M238.54 256.764H231.659C230.392 256.764 229.365 257.791 229.365 259.057V265.934C229.365 267.2 230.392 268.227 231.659 268.227H238.54C239.807 268.227 240.833 267.2 240.833 265.934V259.057C240.833 257.791 239.807 256.764 238.54 256.764Z" fill="#C6C6C6"/>
<path d="M532.127 251.033H516.071C514.171 251.033 512.631 252.572 512.631 254.472V270.519C512.631 272.419 514.171 273.958 516.071 273.958H532.127C534.027 273.958 535.567 272.419 535.567 270.519V254.472C535.567 252.572 534.027 251.033 532.127 251.033Z" fill="#F3F4F6"/>
<path d="M527.54 256.764H520.659C519.392 256.764 518.365 257.791 518.365 259.057V265.934C518.365 267.2 519.392 268.227 520.659 268.227H527.54C528.807 268.227 529.833 267.2 529.833 265.934V259.057C529.833 257.791 528.807 256.764 527.54 256.764Z" fill="#C6C6C6"/>
<path d="M533.274 284.275H53.9011C52.6343 284.275 51.6074 285.301 51.6074 286.567V291.152C51.6074 292.418 52.6343 293.445 53.9011 293.445H533.274C534.541 293.445 535.568 292.418 535.568 291.152V286.567C535.568 285.301 534.541 284.275 533.274 284.275Z" fill="#EBEBEB"/>
<path d="M158.262 317.516H53.9011C52.6343 317.516 51.6074 318.543 51.6074 319.809V324.394C51.6074 325.66 52.6343 326.687 53.9011 326.687H158.262C159.529 326.687 160.556 325.66 160.556 324.394V319.809C160.556 318.543 159.529 317.516 158.262 317.516Z" fill="#EBEBEB"/>
<path d="M206.429 253.325H55.0479C53.1478 253.325 51.6074 254.865 51.6074 256.764V271.666C51.6074 273.565 53.1478 275.105 55.0479 275.105H206.429C208.329 275.105 209.869 273.565 209.869 271.666V256.764C209.869 254.865 208.329 253.325 206.429 253.325Z" fill="#808080"/>
</g>
<g filter="url(#filter1_d_1020_2125)">
<path d="M537.861 105.457H40.1388C36.3385 105.457 33.2578 108.536 33.2578 112.334V206.328C33.2578 210.127 36.3385 213.206 40.1388 213.206H537.861C541.661 213.206 544.742 210.127 544.742 206.328V112.334C544.742 108.536 541.661 105.457 537.861 105.457Z" fill="white"/>
</g>
<path d="M58.9721 143.492C57.68 143.492 56.4178 143.324 55.1853 142.986C53.9528 142.647 52.9689 142.221 52.2334 141.704L53.6646 138.873C54.3803 139.35 55.235 139.737 56.2289 140.035C57.2427 140.314 58.2367 140.452 59.2107 140.452C61.437 140.452 62.5502 139.867 62.5502 138.694C62.5502 138.138 62.262 137.751 61.6855 137.532C61.129 137.313 60.2245 137.104 58.9721 136.906C57.6602 136.707 56.5867 136.478 55.7519 136.22C54.9368 135.962 54.2212 135.515 53.605 134.879C53.0087 134.223 52.7105 133.319 52.7105 132.167C52.7105 130.657 53.3366 129.455 54.589 128.561C55.8611 127.647 57.5707 127.19 59.7176 127.19C60.8108 127.19 61.9042 127.319 62.9975 127.577C64.0908 127.816 64.9853 128.144 65.6811 128.561L64.2498 131.392C62.8981 130.598 61.3774 130.2 59.6878 130.2C58.5945 130.2 57.7596 130.369 57.1831 130.707C56.6265 131.024 56.3482 131.452 56.3482 131.988C56.3482 132.584 56.6464 133.012 57.2427 133.27C57.8589 133.508 58.8032 133.736 60.0754 133.955C61.3476 134.154 62.3912 134.383 63.2062 134.641C64.0213 134.899 64.7169 135.336 65.2934 135.952C65.8898 136.568 66.188 137.442 66.188 138.575C66.188 140.065 65.542 141.257 64.2498 142.151C62.9577 143.045 61.1985 143.492 58.9721 143.492ZM112.267 118.189H115.607L105.767 146.264H102.427L112.267 118.189ZM123.302 123.971C121.732 123.971 120.947 124.825 120.947 126.534V127.488H125.33V130.468H121.066V143.284H117.339V130.468H114.715V127.488H117.339V126.475C117.339 124.766 117.836 123.424 118.83 122.451C119.824 121.457 121.225 120.961 123.034 120.961C124.465 120.961 125.589 121.249 126.403 121.825L125.36 124.627C124.724 124.19 124.038 123.971 123.302 123.971ZM147.369 143.284L147.34 129.455L140.482 140.899H138.752L131.894 129.634V143.284H128.197V122.421H131.387L139.677 136.25L147.817 122.421H151.007L151.037 143.284H147.369ZM166.455 143.284L162.37 137.77L158.255 143.284H154.14L160.342 135.207L154.409 127.369H158.553L162.459 132.584L166.365 127.369H170.391L164.427 135.147L170.659 143.284H166.455ZM188.534 127.369V143.284H184.985V141.257C184.389 141.972 183.644 142.528 182.749 142.926C181.854 143.303 180.891 143.492 179.857 143.492C177.73 143.492 176.05 142.906 174.818 141.734C173.605 140.542 172.999 138.783 172.999 136.459V127.369H176.726V135.952C176.726 137.383 177.045 138.455 177.68 139.171C178.336 139.867 179.26 140.214 180.453 140.214C181.786 140.214 182.838 139.807 183.614 138.992C184.41 138.157 184.806 136.965 184.806 135.416V127.369H188.534ZM193.772 122.421H197.649V140.005H208.562V143.284H193.772V122.421Z" fill="black"/>
<path d="M70.5905 143.492C69.9146 143.492 69.3382 143.264 68.8611 142.807C68.384 142.33 68.1455 141.734 68.1455 141.019C68.1455 140.284 68.3741 139.688 68.8313 139.23C69.3084 138.773 69.8948 138.545 70.5905 138.545C71.2862 138.545 71.8627 138.773 72.32 139.23C72.797 139.688 73.0356 140.284 73.0356 141.019C73.0356 141.734 72.797 142.33 72.32 142.807C71.8429 143.264 71.2664 143.492 70.5905 143.492ZM76.6774 127.369H80.4046V143.284H76.6774V127.369ZM78.5559 124.746C77.8801 124.746 77.3136 124.537 76.8563 124.12C76.3991 123.683 76.1705 123.147 76.1705 122.511C76.1705 121.875 76.3991 121.349 76.8563 120.931C77.3136 120.495 77.8801 120.276 78.5559 120.276C79.2318 120.276 79.7983 120.484 80.2555 120.901C80.7128 121.299 80.9413 121.806 80.9413 122.421C80.9413 123.077 80.7128 123.633 80.2555 124.09C79.8182 124.527 79.2517 124.746 78.5559 124.746ZM100.891 121.17V143.284H97.313V141.227C96.6968 141.983 95.9315 142.549 95.017 142.926C94.1225 143.303 93.1286 143.492 92.0353 143.492C90.5047 143.492 89.1231 143.154 87.8906 142.479C86.6781 141.804 85.7239 140.85 85.0282 139.618C84.3325 138.366 83.9845 136.935 83.9845 135.326C83.9845 133.717 84.3325 132.297 85.0282 131.064C85.7239 129.832 86.6781 128.878 87.8906 128.203C89.1231 127.528 90.5047 127.19 92.0353 127.19C93.0888 127.19 94.053 127.369 94.9276 127.726C95.8022 128.084 96.5477 128.62 97.1639 129.336V121.17H100.891ZM92.4825 140.303C93.377 140.303 94.1821 140.105 94.8977 139.707C95.6134 139.29 96.1799 138.704 96.5973 137.949C97.0148 137.193 97.2235 136.32 97.2235 135.326C97.2235 134.332 97.0148 133.459 96.5973 132.703C96.1799 131.948 95.6134 131.373 94.8977 130.975C94.1821 130.558 93.377 130.349 92.4825 130.349C91.588 130.349 90.7829 130.558 90.0673 130.975C89.3517 131.373 88.7852 131.948 88.3677 132.703C87.9503 133.459 87.7415 134.332 87.7415 135.326C87.7415 136.32 87.9503 137.193 88.3677 137.949C88.7852 138.704 89.3517 139.29 90.0673 139.707C90.7829 140.105 91.588 140.303 92.4825 140.303Z" fill="#E41931"/>
<path d="M532.127 181.11H474.786C472.886 181.11 471.346 182.65 471.346 184.549V200.597C471.346 202.496 472.886 204.036 474.786 204.036H532.127C534.028 204.036 535.568 202.496 535.568 200.597V184.549C535.568 182.65 534.028 181.11 532.127 181.11Z" fill="#F3F4F6"/>
<path d="M461.023 181.11H444.968C443.068 181.11 441.527 182.65 441.527 184.549V200.597C441.527 202.496 443.068 204.036 444.968 204.036H461.023C462.923 204.036 464.464 202.496 464.464 200.597V184.549C464.464 182.65 462.923 181.11 461.023 181.11Z" fill="#F3F4F6"/>
<path d="M431.206 181.11H415.15C413.25 181.11 411.71 182.65 411.71 184.549V200.597C411.71 202.496 413.25 204.036 415.15 204.036H431.206C433.106 204.036 434.646 202.496 434.646 200.597V184.549C434.646 182.65 433.106 181.11 431.206 181.11Z" fill="#F3F4F6"/>
<path d="M426.619 186.842H419.738C418.471 186.842 417.444 187.868 417.444 189.134V196.012C417.444 197.278 418.471 198.304 419.738 198.304H426.619C427.886 198.304 428.913 197.278 428.913 196.012V189.134C428.913 187.868 427.886 186.842 426.619 186.842Z" fill="#C6C6C6"/>
<path d="M456.436 186.842H449.555C448.289 186.842 447.262 187.868 447.262 189.134V196.012C447.262 197.278 448.289 198.304 449.555 198.304H456.436C457.703 198.304 458.73 197.278 458.73 196.012V189.134C458.73 187.868 457.703 186.842 456.436 186.842Z" fill="#C6C6C6"/>
<path d="M486.254 186.842H479.373C478.106 186.842 477.079 187.868 477.079 189.134V196.012C477.079 197.278 478.106 198.304 479.373 198.304H486.254C487.52 198.304 488.547 197.278 488.547 196.012V189.134C488.547 187.868 487.52 186.842 486.254 186.842Z" fill="#C6C6C6"/>
<path d="M529.833 189.134H497.722C497.089 189.134 496.575 189.647 496.575 190.281V194.866C496.575 195.499 497.089 196.012 497.722 196.012H529.833C530.467 196.012 530.98 195.499 530.98 194.866V190.281C530.98 189.647 530.467 189.134 529.833 189.134Z" fill="#B3B3B3"/>
<path d="M243.127 121.505H227.071C225.171 121.505 223.631 123.044 223.631 124.943V140.991C223.631 142.89 225.171 144.43 227.071 144.43H243.127C245.027 144.43 246.567 142.89 246.567 140.991V124.943C246.567 123.044 245.027 121.505 243.127 121.505Z" fill="#F3F4F6"/>
<path d="M238.54 127.236H231.659C230.392 127.236 229.365 128.262 229.365 129.528V136.406C229.365 137.672 230.392 138.699 231.659 138.699H238.54C239.807 138.699 240.833 137.672 240.833 136.406V129.528C240.833 128.262 239.807 127.236 238.54 127.236Z" fill="#C6C6C6"/>
<path d="M532.127 121.505H516.071C514.171 121.505 512.631 123.044 512.631 124.943V140.991C512.631 142.89 514.171 144.43 516.071 144.43H532.127C534.027 144.43 535.567 142.89 535.567 140.991V124.943C535.567 123.044 534.027 121.505 532.127 121.505Z" fill="#F3F4F6"/>
<path d="M527.54 127.236H520.659C519.392 127.236 518.365 128.262 518.365 129.528V136.406C518.365 137.672 519.392 138.699 520.659 138.699H527.54C528.807 138.699 529.833 137.672 529.833 136.406V129.528C529.833 128.262 528.807 127.236 527.54 127.236Z" fill="#C6C6C6"/>
<path d="M533.274 154.746H53.9011C52.6343 154.746 51.6074 155.773 51.6074 157.039V161.624C51.6074 162.89 52.6343 163.916 53.9011 163.916H533.274C534.541 163.916 535.568 162.89 535.568 161.624V157.039C535.568 155.773 534.541 154.746 533.274 154.746Z" fill="#EBEBEB"/>
<path d="M158.262 187.988H53.9011C52.6343 187.988 51.6074 189.014 51.6074 190.281V194.866C51.6074 196.132 52.6343 197.158 53.9011 197.158H158.262C159.529 197.158 160.556 196.132 160.556 194.866V190.281C160.556 189.014 159.529 187.988 158.262 187.988Z" fill="#EBEBEB"/>
<g filter="url(#filter2_d_1020_2125)">
<path d="M540.155 41.2656H37.8451C35.3116 41.2656 33.2578 43.3184 33.2578 45.8507V79.0925C33.2578 81.6248 35.3116 83.6776 37.8451 83.6776H540.155C542.688 83.6776 544.742 81.6248 544.742 79.0925V45.8507C544.742 43.3184 542.688 41.2656 540.155 41.2656Z" fill="white"/>
</g>
<path d="M534.421 48.1433H458.731C456.83 48.1433 455.29 49.6829 455.29 51.5821V73.3612C455.29 75.2604 456.83 76.8 458.731 76.8H534.421C536.321 76.8 537.861 75.2604 537.861 73.3612V51.5821C537.861 49.6829 536.321 48.1433 534.421 48.1433Z" fill="#E41931"/>
<path d="M527.54 58.4597H483.96C483.327 58.4597 482.813 58.9729 482.813 59.606V65.3373C482.813 65.9704 483.327 66.4836 483.96 66.4836H527.54C528.173 66.4836 528.686 65.9704 528.686 65.3373V59.606C528.686 58.9729 528.173 58.4597 527.54 58.4597Z" fill="#F1BFC5"/>
<path d="M432.353 55.021H49.3132C48.0464 55.021 47.0195 56.0474 47.0195 57.3135V67.63C47.0195 68.8961 48.0464 69.9225 49.3132 69.9225H432.353C433.62 69.9225 434.647 68.8961 434.647 67.63V57.3135C434.647 56.0474 433.62 55.021 432.353 55.021Z" fill="#E3E3E3"/>
<path d="M475.933 58.4597H463.318C462.684 58.4597 462.171 58.9729 462.171 59.606V65.3373C462.171 65.9704 462.684 66.4836 463.318 66.4836H475.933C476.566 66.4836 477.08 65.9704 477.08 65.3373V59.606C477.08 58.9729 476.566 58.4597 475.933 58.4597Z" fill="#F1BFC5"/>
</g>
<defs>
<filter id="filter0_d_1020_2125" x="25.2578" y="228.985" width="527.484" height="123.749" filterUnits="userSpaceOnUse" color-interpolation-filters="sRGB">
<feFlood flood-opacity="0" result="BackgroundImageFix"/>
<feColorMatrix in="SourceAlpha" type="matrix" values="0 0 0 0 0 0 0 0 0 0 0 0 0 0 0 0 0 0 127 0" result="hardAlpha"/>
<feOffset dy="2"/>
<feGaussianBlur stdDeviation="4"/>
<feComposite in2="hardAlpha" operator="out"/>
<feColorMatrix type="matrix" values="0 0 0 0 0 0 0 0 0 0 0 0 0 0 0 0 0 0 0.11 0"/>
<feBlend mode="normal" in2="BackgroundImageFix" result="effect1_dropShadow_1020_2125"/>
<feBlend mode="normal" in="SourceGraphic" in2="effect1_dropShadow_1020_2125" result="shape"/>
</filter>
<filter id="filter1_d_1020_2125" x="25.2578" y="99.4567" width="527.484" height="123.749" filterUnits="userSpaceOnUse" color-interpolation-filters="sRGB">
<feFlood flood-opacity="0" result="BackgroundImageFix"/>
<feColorMatrix in="SourceAlpha" type="matrix" values="0 0 0 0 0 0 0 0 0 0 0 0 0 0 0 0 0 0 127 0" result="hardAlpha"/>
<feOffset dy="2"/>
<feGaussianBlur stdDeviation="4"/>
<feComposite in2="hardAlpha" operator="out"/>
<feColorMatrix type="matrix" values="0 0 0 0 0 0 0 0 0 0 0 0 0 0 0 0 0 0 0.11 0"/>
<feBlend mode="normal" in2="BackgroundImageFix" result="effect1_dropShadow_1020_2125"/>
<feBlend mode="normal" in="SourceGraphic" in2="effect1_dropShadow_1020_2125" result="shape"/>
</filter>
<filter id="filter2_d_1020_2125" x="29.2578" y="39.2656" width="519.484" height="50.412" filterUnits="userSpaceOnUse" color-interpolation-filters="sRGB">
<feFlood flood-opacity="0" result="BackgroundImageFix"/>
<feColorMatrix in="SourceAlpha" type="matrix" values="0 0 0 0 0 0 0 0 0 0 0 0 0 0 0 0 0 0 127 0" result="hardAlpha"/>
<feOffset dy="2"/>
<feGaussianBlur stdDeviation="2"/>
<feComposite in2="hardAlpha" operator="out"/>
<feColorMatrix type="matrix" values="0 0 0 0 0 0 0 0 0 0 0 0 0 0 0 0 0 0 0.1 0"/>
<feBlend mode="normal" in2="BackgroundImageFix" result="effect1_dropShadow_1020_2125"/>
<feBlend mode="normal" in="SourceGraphic" in2="effect1_dropShadow_1020_2125" result="shape"/>
</filter>
<clipPath id="clip0_1020_2125">
<rect width="578" height="384" fill="white"/>
</clipPath>
</defs>
</svg>
