<svg width="35" height="50" viewBox="0 0 35 50" fill="none" xmlns="http://www.w3.org/2000/svg">
<path d="M23.9836 17.5648C22.8574 15.9703 20.6744 15.6069 19.1078 16.7534C17.5413 17.8997 17.1843 20.1217 18.3105 21.7162L23.9836 17.5648ZM0.852825 41.2222C1.56762 43.0463 3.59995 43.9351 5.39202 43.2075C7.1841 42.4799 8.05728 40.4113 7.34249 38.5872L0.852825 41.2222ZM14.7594 49.9516C16.682 49.7881 18.1106 48.0691 17.95 46.112C17.7894 44.155 16.1004 42.701 14.1778 42.8645L14.7594 49.9516ZM21.8811 33.1193L19.8985 38.4683L26.4357 40.9787L28.4183 35.6297L21.8811 33.1193ZM21.1471 19.6405C18.3105 21.7162 18.3105 21.7162 18.3105 21.7162C18.3106 21.7162 18.3105 21.7161 18.3105 21.7162C18.3108 21.7165 18.3113 21.7172 18.3117 21.7179C18.3126 21.7191 18.3139 21.7209 18.3156 21.7234C18.3191 21.7283 18.3243 21.7356 18.3311 21.7454C18.3451 21.765 18.3656 21.7943 18.3925 21.8323C18.446 21.9081 18.5244 22.0194 18.6235 22.1602C18.8217 22.4416 19.1023 22.8405 19.4315 23.3099C20.0907 24.2498 20.9413 25.4673 21.7143 26.588L27.4328 22.5016C26.6445 21.3589 25.782 20.1243 25.1182 19.1779C24.7859 18.7041 24.5026 18.3014 24.3023 18.0169C24.2021 17.8747 24.1226 17.7619 24.0681 17.6846C24.0408 17.6459 24.0198 17.6161 24.0056 17.5959C23.9984 17.5858 23.993 17.5781 23.9893 17.5729C23.9875 17.5703 23.9861 17.5683 23.9851 17.5669C23.9846 17.5662 23.9839 17.5651 23.9836 17.5648C23.9837 17.5649 23.9835 17.5647 23.9836 17.5648C23.9835 17.5648 23.9836 17.5648 21.1471 19.6405ZM21.7143 26.588C22.1452 27.2128 22.4439 28.3287 22.5531 29.6447L29.5153 29.0455C29.373 27.3333 28.9389 24.6854 27.4328 22.5016L21.7143 26.588ZM8.01719 39.819L7.8127 39.5036L1.98064 43.4202L2.18513 43.7355L8.01719 39.819ZM7.21413 35.1869L7.74702 33.4504L1.07781 31.3301L0.544918 33.0664L7.21413 35.1869ZM7.8127 39.5036C7.62584 39.2152 7.46824 38.9082 7.34249 38.5872L0.852825 41.2222C1.15433 41.992 1.53236 42.7284 1.98064 43.4202L7.8127 39.5036ZM7.34249 38.5872C6.91732 37.5023 6.87201 36.3016 7.21413 35.1869L0.544918 33.0664C-0.275642 35.7403 -0.167 38.6203 0.852825 41.2222L7.34249 38.5872ZM19.8985 38.4683C18.9844 40.9344 16.7582 42.6451 14.1778 42.8645L14.7594 49.9516C20.0262 49.5038 24.5701 46.0119 26.4357 40.9787L19.8985 38.4683ZM14.1778 42.8645C11.7316 43.0725 9.36895 41.9046 8.01719 39.819L2.18513 43.7355C4.9444 47.9922 9.76656 50.3761 14.7594 49.9516L14.1778 42.8645ZM28.4183 35.6297C29.0902 33.817 29.7223 31.538 29.5153 29.0455L22.5531 29.6447C22.6318 30.5915 22.4061 31.7026 21.8811 33.1193L28.4183 35.6297Z" fill="#0802A3"/>
<path d="M10.6087 32.4351C11.7351 34.0298 13.918 34.393 15.4846 33.2467C17.0511 32.1003 17.4081 29.8784 16.2819 28.2838L10.6087 32.4351ZM33.7397 8.77781C33.0248 6.95375 30.9926 6.0649 29.2005 6.79249C27.4084 7.52007 26.5351 9.58871 27.2499 11.4128L33.7397 8.77781ZM19.833 0.0484543C17.9102 0.211941 16.4818 1.93102 16.6424 3.88801C16.803 5.845 18.4919 7.299 20.4146 7.13552L19.833 0.0484543ZM12.7113 16.8808L14.6939 11.5317L8.1567 9.02134L6.17412 14.3704L12.7113 16.8808ZM13.4453 30.3594C16.2819 28.2838 16.2819 28.2838 16.2819 28.2838L16.2807 28.2822C16.2807 28.2822 16.2785 28.2791 16.2768 28.2766C16.2733 28.2717 16.268 28.2643 16.2612 28.2545C16.2474 28.2349 16.2268 28.2058 16.2 28.1678C16.1463 28.0918 16.068 27.9805 15.9689 27.8399C15.7707 27.5584 15.49 27.1595 15.1609 26.6902C14.5017 25.7503 13.6511 24.5327 12.8781 23.412L7.15973 27.4983C7.94778 28.641 8.81038 29.8758 9.47412 30.8222C9.80657 31.296 10.0898 31.6987 10.2901 31.9832C10.3903 32.1254 10.4698 32.2381 10.5244 32.3155C10.5515 32.3542 10.5726 32.3839 10.5868 32.4041C10.594 32.4141 10.5993 32.4219 10.6031 32.4272C10.6049 32.4298 10.6073 32.433 10.6073 32.433L10.6087 32.4351C10.6087 32.4351 10.6087 32.4351 13.4453 30.3594ZM12.8781 23.412C12.4471 22.7873 12.1486 21.6713 12.0392 20.3554L5.07712 20.9545C5.21945 22.6668 5.6535 25.3146 7.15973 27.4983L12.8781 23.412ZM26.5752 10.181L26.7796 10.4964L32.6117 6.5799L32.4073 6.26455L26.5752 10.181ZM27.3783 14.8132L26.8454 16.5496L33.5146 18.67L34.0475 16.9337L27.3783 14.8132ZM26.7796 10.4964C26.9666 10.7848 27.1242 11.0918 27.2499 11.4128L33.7397 8.77781C33.438 8.00818 33.0601 7.27171 32.6117 6.5799L26.7796 10.4964ZM27.2499 11.4128C27.6751 12.4976 27.7204 13.6983 27.3783 14.8132L34.0475 16.9337C34.8681 14.2598 34.7594 11.3799 33.7397 8.77781L27.2499 11.4128ZM14.6939 11.5317C15.608 9.06574 17.8342 7.35489 20.4146 7.13552L19.833 0.0484543C14.5662 0.496212 10.0223 3.98803 8.1567 9.02134L14.6939 11.5317ZM20.4146 7.13552C22.8608 6.9275 25.2234 8.09553 26.5752 10.181L32.4073 6.26455C29.6481 2.0078 24.8258 -0.376057 19.833 0.0484543L20.4146 7.13552ZM6.17412 14.3704C5.50216 16.183 4.87002 18.4621 5.07712 20.9545L12.0392 20.3554C11.9606 19.4085 12.1863 18.2973 12.7113 16.8808L6.17412 14.3704Z" fill="#FF0063"/>
</svg>
