<svg width="700" height="500" viewBox="0 0 806 700" fill="none" xmlns="http://www.w3.org/2000/svg">
<g filter="url(#filter0_f_1079_204)">
<circle cx="431.473" cy="368.527" r="251.473" fill="url(#paint0_linear_1079_204)"/>
</g>
<g filter="url(#filter1_f_1079_204)">
<circle cx="517.955" cy="271.005" r="184.005" fill="url(#paint1_linear_1079_204)"/>
</g>
<path d="M330.819 235.993C331.54 230.232 323.843 210.447 321.518 206.964C311.443 204.641 298.267 210.447 293.616 222.059C291.889 226.372 291.291 242.961 299.429 248.766C304.781 252.584 329.656 245.283 330.819 235.993Z" fill="#AF1F31"/>
<path d="M263.295 253.753C267.552 251.884 340.638 215.468 356.224 208.627C361.545 206.291 357.736 197.055 352.414 199.391C350.909 200.051 259.75 243.386 257.221 243.989C254.692 244.591 245.262 254.287 246.129 255.682C246.997 257.077 257.973 256.088 263.295 253.753Z" fill="#3F3333"/>
<path d="M383.112 217.414C405.201 189.546 441.313 172.58 465.654 174.451C495.881 176.773 512.125 190.577 522.621 203.48C537.734 222.059 544.71 244.122 552.848 302.181C560.279 355.192 540.171 446.079 502.857 476.359C465.654 506.549 345.91 506.549 309.87 470.553C237.812 398.582 302.917 332.372 313.38 275.474C319.891 240.069 284.859 232.912 295.941 217.414C307.567 201.158 336.933 202.319 351.745 217.414C366.557 232.51 371.509 247.605 366.579 289.408C363.094 318.967 333.961 391.409 361.907 410.389C390.971 430.129 445.891 422.944 459.842 373.013C473.792 323.082 450.428 269.099 424.965 267.345C391.25 265.023 363.898 241.656 383.112 217.414Z" fill="#D04141"/>
<path d="M454.03 269.668C445.359 264.573 434.266 268.893 428.453 267.345C433.103 271.603 445.194 285.228 456.355 305.664C467.515 326.101 471.082 377.658 471.468 400.882C478.443 387.334 483.791 354.666 481.931 332.372C479.606 304.503 473.793 281.28 454.03 269.668Z" fill="#AF1F31"/>
<path d="M483.117 249.928C498.526 249.928 511.019 237.45 511.019 222.059C511.019 206.668 498.526 194.191 483.117 194.191C467.707 194.191 455.215 206.668 455.215 222.059C455.215 237.45 467.707 249.928 483.117 249.928Z" fill="#F3E6E6"/>
<path d="M478.467 233.671C486.171 233.671 492.417 227.433 492.417 219.737C492.417 212.041 486.171 205.803 478.467 205.803C470.762 205.803 464.516 212.041 464.516 219.737C464.516 227.433 470.762 233.671 478.467 233.671Z" fill="#211111"/>
<path d="M427.291 219.737C442.7 219.737 455.192 207.26 455.192 191.868C455.192 176.477 442.7 164 427.291 164C411.881 164 399.389 176.477 399.389 191.868C399.389 207.26 411.881 219.737 427.291 219.737Z" fill="#F3E6E6"/>
<path d="M434.289 212.77C441.994 212.77 448.24 206.531 448.24 198.836C448.24 191.14 441.994 184.901 434.289 184.901C426.584 184.901 420.338 191.14 420.338 198.836C420.338 206.531 426.584 212.77 434.289 212.77Z" fill="#211111"/>
<path d="M512.157 439.201C496.837 462.155 451.317 493.389 434.266 497.26C454.804 495.711 483.093 495.915 508.67 471.714C526.341 454.993 551.685 396.237 552.848 349.79C543.547 382.303 542.384 393.915 512.157 439.201Z" fill="#AF1F31"/>
<path d="M486.748 331.977C459.112 329.839 436.259 321.286 428.287 317.276C428.287 391.049 410.572 432.656 401.714 444.24H436.259C457.518 444.24 491.178 454.041 505.35 458.941C505.791 453.149 517.264 429.426 522.621 400.882C529.596 363.724 531.922 347.467 531.922 331.977C528.38 332.869 514.385 334.116 486.748 331.977Z" fill="#F3E6E6"/>
<defs>
<filter id="filter0_f_1079_204" x="0" y="-62.9458" width="862.946" height="862.946" filterUnits="userSpaceOnUse" color-interpolation-filters="sRGB">
<feFlood flood-opacity="0" result="BackgroundImageFix"/>
<feBlend mode="normal" in="SourceGraphic" in2="BackgroundImageFix" result="shape"/>
<feGaussianBlur stdDeviation="90" result="effect1_foregroundBlur_1079_204"/>
</filter>
<filter id="filter1_f_1079_204" x="233.95" y="-13" width="568.009" height="568.009" filterUnits="userSpaceOnUse" color-interpolation-filters="sRGB">
<feFlood flood-opacity="0" result="BackgroundImageFix"/>
<feBlend mode="normal" in="SourceGraphic" in2="BackgroundImageFix" result="shape"/>
<feGaussianBlur stdDeviation="50" result="effect1_foregroundBlur_1079_204"/>
</filter>
<linearGradient id="paint0_linear_1079_204" x1="431.473" y1="117.054" x2="431.473" y2="620" gradientUnits="userSpaceOnUse">
<stop stop-color="#FF7BCA"/>
<stop offset="1" stop-color="#FFC56F" stop-opacity="0.46"/>
</linearGradient>
<linearGradient id="paint1_linear_1079_204" x1="517.955" y1="87" x2="517.955" y2="455.009" gradientUnits="userSpaceOnUse">
<stop stop-color="#F22FB0"/>
<stop offset="1" stop-color="#F58A25" stop-opacity="0"/>
<stop offset="1" stop-color="#7061A3"/>
</linearGradient>
</defs>
</svg>
