<svg width="62" height="62" viewBox="0 0 62 62" fill="none" xmlns="http://www.w3.org/2000/svg">
<path d="M37.9836 23.5648C36.8574 21.9703 34.6744 21.6069 33.1078 22.7534C31.5413 23.8997 31.1843 26.1217 32.3105 27.7162L37.9836 23.5648ZM14.8528 47.2222C15.5676 49.0463 17.6 49.9351 19.392 49.2075C21.1841 48.4799 22.0573 46.4113 21.3425 44.5872L14.8528 47.2222ZM28.7594 55.9516C30.682 55.7881 32.1106 54.0691 31.95 52.112C31.7894 50.155 30.1004 48.701 28.1778 48.8645L28.7594 55.9516ZM35.8811 39.1193L33.8985 44.4683L40.4357 46.9787L42.4183 41.6297L35.8811 39.1193ZM35.1471 25.6405C32.3105 27.7162 32.3105 27.7162 32.3105 27.7162C32.3106 27.7162 32.3105 27.7161 32.3105 27.7162C32.3108 27.7165 32.3113 27.7172 32.3117 27.7179C32.3126 27.7191 32.3139 27.7209 32.3156 27.7234C32.3191 27.7283 32.3243 27.7356 32.3311 27.7454C32.3451 27.765 32.3656 27.7943 32.3925 27.8323C32.446 27.9081 32.5244 28.0194 32.6235 28.1602C32.8217 28.4416 33.1023 28.8405 33.4315 29.3099C34.0907 30.2498 34.9413 31.4673 35.7143 32.588L41.4328 28.5016C40.6445 27.3589 39.782 26.1243 39.1182 25.1779C38.7859 24.7041 38.5026 24.3014 38.3023 24.0169C38.2021 23.8747 38.1226 23.7619 38.0681 23.6846C38.0408 23.6459 38.0198 23.6161 38.0056 23.5959C37.9984 23.5858 37.993 23.5781 37.9893 23.5729C37.9875 23.5703 37.9861 23.5683 37.9851 23.5669C37.9846 23.5662 37.9839 23.5651 37.9836 23.5648C37.9837 23.5649 37.9835 23.5647 37.9836 23.5648C37.9835 23.5648 37.9836 23.5648 35.1471 25.6405ZM35.7143 32.588C36.1452 33.2128 36.4439 34.3287 36.5531 35.6447L43.5153 35.0455C43.373 33.3333 42.9389 30.6854 41.4328 28.5016L35.7143 32.588ZM22.0172 45.819L21.8127 45.5036L15.9806 49.4202L16.1851 49.7355L22.0172 45.819ZM21.2141 41.1869L21.747 39.4504L15.0778 37.3301L14.5449 39.0664L21.2141 41.1869ZM21.8127 45.5036C21.6258 45.2152 21.4682 44.9082 21.3425 44.5872L14.8528 47.2222C15.1543 47.992 15.5324 48.7284 15.9806 49.4202L21.8127 45.5036ZM21.3425 44.5872C20.9173 43.5023 20.872 42.3016 21.2141 41.1869L14.5449 39.0664C13.7244 41.7403 13.833 44.6203 14.8528 47.2222L21.3425 44.5872ZM33.8985 44.4683C32.9844 46.9344 30.7582 48.6451 28.1778 48.8645L28.7594 55.9516C34.0262 55.5038 38.5701 52.0119 40.4357 46.9787L33.8985 44.4683ZM28.1778 48.8645C25.7316 49.0725 23.3689 47.9046 22.0172 45.819L16.1851 49.7355C18.9444 53.9922 23.7666 56.3761 28.7594 55.9516L28.1778 48.8645ZM42.4183 41.6297C43.0902 39.817 43.7223 37.538 43.5153 35.0455L36.5531 35.6447C36.6318 36.5915 36.4061 37.7026 35.8811 39.1193L42.4183 41.6297Z" fill="#0802A3"/>
<path d="M24.6087 38.4351C25.7351 40.0298 27.918 40.393 29.4846 39.2467C31.0511 38.1003 31.4081 35.8784 30.2819 34.2838L24.6087 38.4351ZM47.7397 14.7778C47.0248 12.9538 44.9926 12.0649 43.2005 12.7925C41.4084 13.5201 40.5351 15.5887 41.2499 17.4128L47.7397 14.7778ZM33.833 6.04845C31.9102 6.21194 30.4818 7.93102 30.6424 9.88801C30.803 11.845 32.4919 13.299 34.4146 13.1355L33.833 6.04845ZM26.7113 22.8808L28.6939 17.5317L22.1567 15.0213L20.1741 20.3704L26.7113 22.8808ZM27.4453 36.3594C30.2819 34.2838 30.2819 34.2838 30.2819 34.2838L30.2807 34.2822C30.2807 34.2822 30.2785 34.2791 30.2768 34.2766C30.2733 34.2717 30.268 34.2643 30.2612 34.2545C30.2474 34.2349 30.2268 34.2058 30.2 34.1678C30.1463 34.0918 30.068 33.9805 29.9689 33.8399C29.7707 33.5584 29.49 33.1595 29.1609 32.6902C28.5017 31.7503 27.6511 30.5327 26.8781 29.412L21.1597 33.4983C21.9478 34.641 22.8104 35.8758 23.4741 36.8222C23.8066 37.296 24.0898 37.6987 24.2901 37.9832C24.3903 38.1254 24.4698 38.2381 24.5244 38.3155C24.5515 38.3542 24.5726 38.3839 24.5868 38.4041C24.594 38.4141 24.5993 38.4219 24.6031 38.4272C24.6049 38.4298 24.6073 38.433 24.6073 38.433L24.6087 38.4351C24.6087 38.4351 24.6087 38.4351 27.4453 36.3594ZM26.8781 29.412C26.4471 28.7873 26.1486 27.6713 26.0392 26.3554L19.0771 26.9545C19.2194 28.6668 19.6535 31.3146 21.1597 33.4983L26.8781 29.412ZM40.5752 16.181L40.7796 16.4964L46.6117 12.5799L46.4073 12.2646L40.5752 16.181ZM41.3783 20.8132L40.8454 22.5496L47.5146 24.67L48.0475 22.9337L41.3783 20.8132ZM40.7796 16.4964C40.9666 16.7848 41.1242 17.0918 41.2499 17.4128L47.7397 14.7778C47.438 14.0082 47.0601 13.2717 46.6117 12.5799L40.7796 16.4964ZM41.2499 17.4128C41.6751 18.4976 41.7204 19.6983 41.3783 20.8132L48.0475 22.9337C48.8681 20.2598 48.7594 17.3799 47.7397 14.7778L41.2499 17.4128ZM28.6939 17.5317C29.608 15.0657 31.8342 13.3549 34.4146 13.1355L33.833 6.04845C28.5662 6.49621 24.0223 9.98803 22.1567 15.0213L28.6939 17.5317ZM34.4146 13.1355C36.8608 12.9275 39.2234 14.0955 40.5752 16.181L46.4073 12.2646C43.6481 8.0078 38.8258 5.62394 33.833 6.04845L34.4146 13.1355ZM20.1741 20.3704C19.5022 22.183 18.87 24.4621 19.0771 26.9545L26.0392 26.3554C25.9606 25.4085 26.1863 24.2973 26.7113 22.8808L20.1741 20.3704Z" fill="#FF0063"/>
</svg>
